<?xml version="1.0" encoding="UTF-8" standalone="no"?>
<svg
   xmlns:dc="http://purl.org/dc/elements/1.1/"
   xmlns:cc="http://creativecommons.org/ns#"
   xmlns:rdf="http://www.w3.org/1999/02/22-rdf-syntax-ns#"
   xmlns:svg="http://www.w3.org/2000/svg"
   xmlns="http://www.w3.org/2000/svg"
   xmlns:sodipodi="http://sodipodi.sourceforge.net/DTD/sodipodi-0.dtd"
   xmlns:inkscape="http://www.inkscape.org/namespaces/inkscape"
   sodipodi:docname="iconDep.svg"
   inkscape:version="1.0beta2 (4377acc, 2020-03-27)"
   id="svg8"
   version="1.1"
   viewBox="0 0 20 20"
   height="20mm"
   width="20mm">
  <defs
     id="defs2">
    <rect
       x="-214.91937"
       y="-131.0656"
       width="32.766396"
       height="102.87944"
       id="rect991" />
    <clipPath
       clipPathUnits="userSpaceOnUse"
       id="clipPath1009">
      <ellipse
         ry="2.4159169"
         rx="2.4159193"
         cy="47.740898"
         cx="61.213703"
         id="ellipse1011"
         style="opacity:0.714286;fill:#adff2f;fill-opacity:1;stroke:#adff2f;stroke-width:1.16817;stroke-miterlimit:4;stroke-dasharray:none;paint-order:markers stroke fill;stop-color:#000000" />
    </clipPath>
    <clipPath
       id="clipPath1009-8"
       clipPathUnits="userSpaceOnUse">
      <ellipse
         style="opacity:0.714286;fill:#adff2f;fill-opacity:1;stroke:#adff2f;stroke-width:1.16817;stroke-miterlimit:4;stroke-dasharray:none;paint-order:markers stroke fill;stop-color:#000000"
         id="ellipse1011-0"
         cx="61.213703"
         cy="47.740898"
         rx="2.4159193"
         ry="2.4159169" />
    </clipPath>
    <clipPath
       clipPathUnits="userSpaceOnUse"
       id="clipPath1009-8-3">
      <ellipse
         ry="2.4159169"
         rx="2.4159193"
         cy="47.740898"
         cx="61.213703"
         id="ellipse1011-0-6"
         style="opacity:0.714286;fill:#adff2f;fill-opacity:1;stroke:#adff2f;stroke-width:1.16817;stroke-miterlimit:4;stroke-dasharray:none;paint-order:markers stroke fill;stop-color:#000000" />
    </clipPath>
  </defs>
  <sodipodi:namedview
     inkscape:window-maximized="1"
     inkscape:window-y="-11"
     inkscape:window-x="-11"
     inkscape:window-height="986"
     inkscape:window-width="1920"
     inkscape:guide-bbox="true"
     showguides="true"
     inkscape:snap-global="false"
     showgrid="false"
     inkscape:document-rotation="0"
     inkscape:current-layer="layer1"
     inkscape:document-units="mm"
     inkscape:cy="40.231434"
     inkscape:cx="18.945009"
     inkscape:zoom="7.333876"
     inkscape:pageshadow="2"
     inkscape:pageopacity="0.0"
     borderopacity="1.0"
     bordercolor="#666666"
     pagecolor="#ffffff"
     id="base" />
  <metadata
     id="metadata5">
    <rdf:RDF>
      <cc:Work
         rdf:about="">
        <dc:format>image/svg+xml</dc:format>
        <dc:type
           rdf:resource="http://purl.org/dc/dcmitype/StillImage" />
        <dc:title />
      </cc:Work>
    </rdf:RDF>
  </metadata>
  <g
     id="layer1"
     inkscape:groupmode="layer"
     inkscape:label="Layer 1">
    <text
       xml:space="preserve"
       id="text989"
       style="font-size:10.5833px;line-height:1.25;font-family:sans-serif;word-spacing:0px;white-space:pre;shape-inside:url(#rect991);" />
    <path
       style="fill:#3d8bff;fill-opacity:1;stroke-width:0.30124;paint-order:markers stroke fill;stop-color:#000000"
       d="M 8.8754853,19.959195 C 5.0156102,19.516658 1.6846385,16.790086 0.4761497,13.083909 0.00177662,11.629111 -0.1333984,9.6853932 0.13973905,8.2467413 0.87707031,4.3631091 3.7201884,1.3040067 7.5052032,0.3217274 c 1.6480906,-0.42770642 3.3146848,-0.42896831 4.9860258,-0.003772 3.232005,0.8222341 5.857838,3.2414606 6.986396,6.4366817 0.386622,1.094635 0.522377,1.9387346 0.522377,3.2479849 0,2.16353 -0.517934,3.82973 -1.771935,5.700288 -1.388481,2.07116 -3.807856,3.65759 -6.297335,4.129283 -0.814456,0.154319 -2.2841431,0.215413 -3.0552467,0.127005 z"
       id="path961-2-2-1"
       inkscape:connector-curvature="0" />
    <path
       inkscape:connector-curvature="0"
       id="path1027-6"
       d="M 8.9336394,17.649827 V 17.047291 H 7.0231614 5.1126929 V 10.082259 3.1172299 h 1.9104685 1.910478 V 2.5447616 c 0,-0.3148566 0.022413,-0.5724683 0.049812,-0.5724683 0.047081,0 0.8322173,0.1387527 5.0129206,0.885912 l 1.767188,0.3158249 v 6.8810228 c 0,3.784563 -0.0251,6.90607 -0.05579,6.936683 -0.03067,0.03062 -1.567408,0.326779 -3.414955,0.658145 l -3.3591785,0.602482 z m 0,-7.567568 V 4.1667552 H 7.548545 6.1634601 v 5.9155038 5.915507 H 7.548545 8.9336394 Z m 1.4294936,0.387919 C 10.671488,9.8946655 10.086542,9.1850798 9.6935934,9.6579928 c -0.1584256,0.1906679 -0.1584256,0.6578662 0,0.8485352 0.1712116,0.206052 0.5506796,0.18545 0.6695396,-0.03635 z"
       style="fill:#000000;fill-opacity:1;stroke-width:0.360821;paint-order:markers stroke fill;stop-color:#000000" />
    <path
       style="fill:#8ad3ff;fill-opacity:1;stroke-width:0.360821;paint-order:markers stroke fill;stop-color:#000000"
       d="M 8.464708,17.358521 V 16.755984 H 6.5542299 4.6437614 V 9.790953 2.8259235 H 6.5542299 8.464708 V 2.2534552 c 0,-0.3148567 0.022413,-0.5724684 0.049812,-0.5724684 0.047081,0 0.8322173,0.1387528 5.01292,0.885912 l 1.767188,0.3158249 v 6.8810227 c 0,3.7845636 -0.0251,6.9060706 -0.05579,6.9366836 -0.03067,0.03061 -1.567408,0.326779 -3.414955,0.658145 l -3.3591788,0.602482 z m 0,-7.567568 V 3.8754488 H 7.0796135 5.6945286 V 9.790953 15.706459 H 7.0796135 8.464708 Z m 1.4294932,0.387919 C 10.202557,9.6033591 9.6176104,8.8937733 9.224662,9.3666864 c -0.1584257,0.1906679 -0.1584257,0.6578666 0,0.8485356 0.1712115,0.206051 0.5506795,0.18545 0.6695392,-0.03635 z"
       id="path1027"
       inkscape:connector-curvature="0" />
  </g>
</svg>
