<?xml version="1.0" encoding="UTF-8" standalone="no"?>
<svg
   xmlns:dc="http://purl.org/dc/elements/1.1/"
   xmlns:cc="http://creativecommons.org/ns#"
   xmlns:rdf="http://www.w3.org/1999/02/22-rdf-syntax-ns#"
   xmlns:svg="http://www.w3.org/2000/svg"
   xmlns="http://www.w3.org/2000/svg"
   xmlns:sodipodi="http://sodipodi.sourceforge.net/DTD/sodipodi-0.dtd"
   xmlns:inkscape="http://www.inkscape.org/namespaces/inkscape"
   width="20mm"
   height="20mm"
   viewBox="0 0 20 20"
   version="1.1"
   id="svg8"
   inkscape:version="1.0beta2 (4377acc, 2020-03-27)"
   sodipodi:docname="iconDepNew.svg">
  <defs
     id="defs2">
    <rect
       id="rect991"
       height="102.87944"
       width="32.766396"
       y="-131.0656"
       x="-214.91937" />
    <clipPath
       id="clipPath1009"
       clipPathUnits="userSpaceOnUse">
      <ellipse
         style="opacity:0.714286;fill:#adff2f;fill-opacity:1;stroke:#adff2f;stroke-width:1.16817;stroke-miterlimit:4;stroke-dasharray:none;paint-order:markers stroke fill;stop-color:#000000"
         id="ellipse1011"
         cx="61.213703"
         cy="47.740898"
         rx="2.4159193"
         ry="2.4159169" />
    </clipPath>
    <clipPath
       clipPathUnits="userSpaceOnUse"
       id="clipPath1009-8">
      <ellipse
         ry="2.4159169"
         rx="2.4159193"
         cy="47.740898"
         cx="61.213703"
         id="ellipse1011-0"
         style="opacity:0.714286;fill:#adff2f;fill-opacity:1;stroke:#adff2f;stroke-width:1.16817;stroke-miterlimit:4;stroke-dasharray:none;paint-order:markers stroke fill;stop-color:#000000" />
    </clipPath>
    <clipPath
       id="clipPath1009-8-3"
       clipPathUnits="userSpaceOnUse">
      <ellipse
         style="opacity:0.714286;fill:#adff2f;fill-opacity:1;stroke:#adff2f;stroke-width:1.16817;stroke-miterlimit:4;stroke-dasharray:none;paint-order:markers stroke fill;stop-color:#000000"
         id="ellipse1011-0-6"
         cx="61.213703"
         cy="47.740898"
         rx="2.4159193"
         ry="2.4159169" />
    </clipPath>
    <rect
       x="-214.91937"
       y="-131.0656"
       width="32.766396"
       height="102.87944"
       id="rect991-1" />
    <clipPath
       clipPathUnits="userSpaceOnUse"
       id="clipPath1009-0">
      <ellipse
         ry="2.4159169"
         rx="2.4159193"
         cy="47.740898"
         cx="61.213703"
         id="ellipse1011-5"
         style="opacity:0.714286;fill:#adff2f;fill-opacity:1;stroke:#adff2f;stroke-width:1.16817;stroke-miterlimit:4;stroke-dasharray:none;paint-order:markers stroke fill;stop-color:#000000" />
    </clipPath>
    <clipPath
       id="clipPath1009-8-2"
       clipPathUnits="userSpaceOnUse">
      <ellipse
         style="opacity:0.714286;fill:#adff2f;fill-opacity:1;stroke:#adff2f;stroke-width:1.16817;stroke-miterlimit:4;stroke-dasharray:none;paint-order:markers stroke fill;stop-color:#000000"
         id="ellipse1011-0-8"
         cx="61.213703"
         cy="47.740898"
         rx="2.4159193"
         ry="2.4159169" />
    </clipPath>
    <clipPath
       clipPathUnits="userSpaceOnUse"
       id="clipPath1009-8-3-1">
      <ellipse
         ry="2.4159169"
         rx="2.4159193"
         cy="47.740898"
         cx="61.213703"
         id="ellipse1011-0-6-0"
         style="opacity:0.714286;fill:#adff2f;fill-opacity:1;stroke:#adff2f;stroke-width:1.16817;stroke-miterlimit:4;stroke-dasharray:none;paint-order:markers stroke fill;stop-color:#000000" />
    </clipPath>
  </defs>
  <sodipodi:namedview
     id="base"
     pagecolor="#ffffff"
     bordercolor="#666666"
     borderopacity="1.0"
     inkscape:pageopacity="0.0"
     inkscape:pageshadow="2"
     inkscape:zoom="5.1858335"
     inkscape:cx="22.529727"
     inkscape:cy="26.760035"
     inkscape:document-units="mm"
     inkscape:current-layer="layer1"
     inkscape:document-rotation="0"
     showgrid="false"
     inkscape:snap-global="true"
     showguides="true"
     inkscape:guide-bbox="true"
     inkscape:window-width="1920"
     inkscape:window-height="986"
     inkscape:window-x="-11"
     inkscape:window-y="-11"
     inkscape:window-maximized="1" />
  <metadata
     id="metadata5">
    <rdf:RDF>
      <cc:Work
         rdf:about="">
        <dc:format>image/svg+xml</dc:format>
        <dc:type
           rdf:resource="http://purl.org/dc/dcmitype/StillImage" />
        <dc:title />
      </cc:Work>
    </rdf:RDF>
  </metadata>
  <g
     inkscape:label="Layer 1"
     inkscape:groupmode="layer"
     id="layer1">
    <path
       inkscape:connector-curvature="0"
       id="path961-2-2-1"
       d="M 7.8113121,17.566086 C 4.4142361,17.176609 1.4826486,14.776953 0.41905749,11.515147 0.00156183,10.234779 -0.11740569,8.5241137 0.12298218,7.2579562 0.77190718,3.8399717 3.2741353,1.1476559 6.6053269,0.28315195 c 1.4504849,-0.37642438 2.9172542,-0.37753498 4.3882011,-0.003318 2.844487,0.72364825 5.155483,2.85280935 6.148727,5.66492325 0.340266,0.9633882 0.459744,1.7062802 0.459744,2.8585513 0,1.9041225 -0.455834,3.3705455 -1.55948,5.0168235 -1.222002,1.822827 -3.351294,3.219044 -5.542284,3.634181 -0.7168028,0.135816 -2.0102743,0.189585 -2.6889229,0.111777 z"
       style="fill:#3d8bff;fill-opacity:1;stroke-width:0.265121;paint-order:markers stroke fill;stop-color:#000000" />
    <path
       inkscape:connector-curvature="0"
       id="path1027"
       d="M 7.4497972,15.277233 V 14.746941 H 5.7683855 4.0869821 V 8.6170168 2.4870948 H 5.7683855 7.4497972 V 1.9832655 c 0,-0.2771054 0.019726,-0.5038294 0.043839,-0.5038294 0.041436,0 0.7324345,0.1221163 4.4118718,0.7796911 l 1.555302,0.2779575 v 6.0559876 c 0,3.3307937 -0.02209,6.0780317 -0.0491,6.1049747 -0.02699,0.02694 -1.379476,0.287598 -3.005503,0.579233 l -2.9564132,0.530244 z m 0,-6.6602162 V 3.4107819 H 6.2307756 5.0117623 v 5.2062349 5.2062362 h 1.2190133 1.2190216 z m 1.258097,0.3414074 C 8.9792782,8.4519154 8.4644667,7.827409 8.1186328,8.2436198 c -0.1394304,0.1678068 -0.1394304,0.5789881 0,0.7467957 0.1506832,0.1813463 0.4846531,0.1632148 0.5892614,-0.031991 z"
       style="fill:#8ad3ff;fill-opacity:1;stroke-width:0.317559;paint-order:markers stroke fill;stop-color:#000000" />
    <text
       style="font-size:10.5833px;line-height:1.25;font-family:sans-serif;word-spacing:0px;white-space:pre;shape-inside:url(#rect991);"
       id="text989"
       xml:space="preserve" />
    <circle
       style="fill:#000000;fill-opacity:1;stroke-width:1.3179;paint-order:markers stroke fill;stop-color:#000000"
       id="path858-7"
       cx="14.413265"
       cy="14.311224"
       r="5.6377549" />
    <circle
       r="5"
       cy="14.311224"
       cx="14.413265"
       id="path858"
       style="fill:#3d8bff;fill-opacity:1;stroke-width:1.16882;paint-order:markers stroke fill;stop-color:#000000" />
    <path
       transform="scale(0.26458333)"
       d="M 50.232422 41.458984 L 50.232422 49.847656 L 41.845703 49.847656 L 41.845703 58.332031 L 50.232422 58.332031 L 50.232422 66.720703 L 58.716797 66.720703 L 58.716797 58.332031 L 67.105469 58.332031 L 67.105469 49.847656 L 58.716797 49.847656 L 58.716797 41.458984 L 50.232422 41.458984 z "
       style="fill:#8ad3ff;fill-opacity:1;stroke-width:3.88331;paint-order:markers stroke fill;stop-color:#000000"
       id="rect860" />
    <text
       transform="translate(-20.561226,-7.1428573)"
       style="font-size:10.5833px;line-height:1.25;font-family:sans-serif;word-spacing:0px;white-space:pre;shape-inside:url(#rect991-1);"
       id="text989-9"
       xml:space="preserve" />
  </g>
</svg>
