<?xml version="1.0" encoding="UTF-8" standalone="no"?>
<svg
   xmlns:dc="http://purl.org/dc/elements/1.1/"
   xmlns:cc="http://creativecommons.org/ns#"
   xmlns:rdf="http://www.w3.org/1999/02/22-rdf-syntax-ns#"
   xmlns:svg="http://www.w3.org/2000/svg"
   xmlns="http://www.w3.org/2000/svg"
   xmlns:sodipodi="http://sodipodi.sourceforge.net/DTD/sodipodi-0.dtd"
   xmlns:inkscape="http://www.inkscape.org/namespaces/inkscape"
   sodipodi:docname="iconMag.svg"
   inkscape:version="1.0beta2 (4377acc, 2020-03-27)"
   id="svg8"
   version="1.1"
   viewBox="0 0 20 20"
   height="20mm"
   width="20mm">
  <defs
     id="defs2">
    <rect
       x="-214.91937"
       y="-131.0656"
       width="32.766396"
       height="102.87944"
       id="rect991" />
    <clipPath
       clipPathUnits="userSpaceOnUse"
       id="clipPath1009">
      <ellipse
         ry="2.4159169"
         rx="2.4159193"
         cy="47.740898"
         cx="61.213703"
         id="ellipse1011"
         style="opacity:0.714286;fill:#adff2f;fill-opacity:1;stroke:#adff2f;stroke-width:1.16817;stroke-miterlimit:4;stroke-dasharray:none;paint-order:markers stroke fill;stop-color:#000000" />
    </clipPath>
    <clipPath
       id="clipPath1009-8"
       clipPathUnits="userSpaceOnUse">
      <ellipse
         style="opacity:0.714286;fill:#adff2f;fill-opacity:1;stroke:#adff2f;stroke-width:1.16817;stroke-miterlimit:4;stroke-dasharray:none;paint-order:markers stroke fill;stop-color:#000000"
         id="ellipse1011-0"
         cx="61.213703"
         cy="47.740898"
         rx="2.4159193"
         ry="2.4159169" />
    </clipPath>
    <clipPath
       clipPathUnits="userSpaceOnUse"
       id="clipPath1009-8-3">
      <ellipse
         ry="2.4159169"
         rx="2.4159193"
         cy="47.740898"
         cx="61.213703"
         id="ellipse1011-0-6"
         style="opacity:0.714286;fill:#adff2f;fill-opacity:1;stroke:#adff2f;stroke-width:1.16817;stroke-miterlimit:4;stroke-dasharray:none;paint-order:markers stroke fill;stop-color:#000000" />
    </clipPath>
  </defs>
  <sodipodi:namedview
     inkscape:window-maximized="1"
     inkscape:window-y="-11"
     inkscape:window-x="-11"
     inkscape:window-height="986"
     inkscape:window-width="1920"
     inkscape:guide-bbox="true"
     showguides="true"
     inkscape:snap-global="false"
     showgrid="false"
     inkscape:document-rotation="0"
     inkscape:current-layer="layer1"
     inkscape:document-units="mm"
     inkscape:cy="-15.999186"
     inkscape:cx="12.631178"
     inkscape:zoom="3.2759135"
     inkscape:pageshadow="2"
     inkscape:pageopacity="0.0"
     borderopacity="1.0"
     bordercolor="#666666"
     pagecolor="#ffffff"
     id="base" />
  <metadata
     id="metadata5">
    <rdf:RDF>
      <cc:Work
         rdf:about="">
        <dc:format>image/svg+xml</dc:format>
        <dc:type
           rdf:resource="http://purl.org/dc/dcmitype/StillImage" />
        <dc:title></dc:title>
      </cc:Work>
    </rdf:RDF>
  </metadata>
  <g
     id="layer1"
     inkscape:groupmode="layer"
     inkscape:label="Layer 1">
    <text
       xml:space="preserve"
       id="text989"
       style="font-size:10.5833px;line-height:1.25;font-family:sans-serif;word-spacing:0px;white-space:pre;shape-inside:url(#rect991);" />
    <path
       inkscape:connector-curvature="0"
       id="path850"
       d="m 15.253204,16.729944 c -2.408182,-2.410137 -2.580079,-2.611461 -2.580079,-3.02176 0,-0.732424 -0.214823,-0.76758 -1.066902,-0.174598 C 8.718927,15.542921 4.4513865,14.730743 2.4881769,11.798282 1.0051992,9.5831473 0.86729992,6.8577157 2.1256182,4.6327115 2.6903373,3.6341548 3.9431936,2.4494803 4.9492258,1.9627678 6.9685076,0.98585082 8.9164756,0.98213119 10.935894,1.9513363 c 3.739965,1.7949697 4.910771,6.6131288 2.416157,9.9430897 -0.291803,0.389515 -0.299163,0.431287 -0.112369,0.637691 0.122796,0.135688 0.36872,0.220873 0.637642,0.220873 0.407883,0 0.611572,0.173966 2.984992,2.549406 l 2.547237,2.549404 -0.722539,0.73016 c -0.397398,0.401587 -0.752059,0.730157 -0.788135,0.730157 -0.03608,0 -1.22663,-1.161978 -2.645672,-2.582173 z M 9.3091754,12.489013 C 10.60512,12.2051 11.949432,10.929011 12.450821,9.5068039 12.820344,8.458633 12.732576,6.8697694 12.250748,5.8849487 11.331434,4.0059403 9.152626,2.8862628 7.1732922,3.2756732 c -2.017121,0.3968442 -3.4664078,1.8507965 -3.860747,3.873175 -0.3909991,2.005248 0.7448024,4.2002688 2.6244372,5.0719208 1.0761627,0.499053 1.987683,0.571561 3.372193,0.268244 z"
       style="fill:#a9a9a9;fill-opacity:0.970464;stroke-width:0.459082;paint-order:markers stroke fill;stop-color:#000000" />
  </g>
</svg>
