<?xml version="1.0" encoding="UTF-8" standalone="no"?>
<svg
   xmlns:dc="http://purl.org/dc/elements/1.1/"
   xmlns:cc="http://creativecommons.org/ns#"
   xmlns:rdf="http://www.w3.org/1999/02/22-rdf-syntax-ns#"
   xmlns:svg="http://www.w3.org/2000/svg"
   xmlns="http://www.w3.org/2000/svg"
   xmlns:sodipodi="http://sodipodi.sourceforge.net/DTD/sodipodi-0.dtd"
   xmlns:inkscape="http://www.inkscape.org/namespaces/inkscape"
   width="20mm"
   height="20mm"
   viewBox="0 0 20 20"
   version="1.1"
   id="svg8"
   inkscape:version="1.0beta2 (4377acc, 2020-03-27)"
   sodipodi:docname="iconLocNew.svg">
  <defs
     id="defs2">
    <rect
       id="rect991"
       height="102.87944"
       width="32.766396"
       y="-131.0656"
       x="-214.91937" />
    <clipPath
       id="clipPath1009"
       clipPathUnits="userSpaceOnUse">
      <ellipse
         style="opacity:0.714286;fill:#adff2f;fill-opacity:1;stroke:#adff2f;stroke-width:1.16817;stroke-miterlimit:4;stroke-dasharray:none;paint-order:markers stroke fill;stop-color:#000000"
         id="ellipse1011"
         cx="61.213703"
         cy="47.740898"
         rx="2.4159193"
         ry="2.4159169" />
    </clipPath>
    <clipPath
       clipPathUnits="userSpaceOnUse"
       id="clipPath1009-8">
      <ellipse
         ry="2.4159169"
         rx="2.4159193"
         cy="47.740898"
         cx="61.213703"
         id="ellipse1011-0"
         style="opacity:0.714286;fill:#adff2f;fill-opacity:1;stroke:#adff2f;stroke-width:1.16817;stroke-miterlimit:4;stroke-dasharray:none;paint-order:markers stroke fill;stop-color:#000000" />
    </clipPath>
    <clipPath
       id="clipPath1009-8-3"
       clipPathUnits="userSpaceOnUse">
      <ellipse
         style="opacity:0.714286;fill:#adff2f;fill-opacity:1;stroke:#adff2f;stroke-width:1.16817;stroke-miterlimit:4;stroke-dasharray:none;paint-order:markers stroke fill;stop-color:#000000"
         id="ellipse1011-0-6"
         cx="61.213703"
         cy="47.740898"
         rx="2.4159193"
         ry="2.4159169" />
    </clipPath>
    <rect
       x="-214.91937"
       y="-131.0656"
       width="32.766396"
       height="102.87944"
       id="rect991-1" />
    <clipPath
       clipPathUnits="userSpaceOnUse"
       id="clipPath1009-0">
      <ellipse
         ry="2.4159169"
         rx="2.4159193"
         cy="47.740898"
         cx="61.213703"
         id="ellipse1011-5"
         style="opacity:0.714286;fill:#adff2f;fill-opacity:1;stroke:#adff2f;stroke-width:1.16817;stroke-miterlimit:4;stroke-dasharray:none;paint-order:markers stroke fill;stop-color:#000000" />
    </clipPath>
    <clipPath
       id="clipPath1009-8-2"
       clipPathUnits="userSpaceOnUse">
      <ellipse
         style="opacity:0.714286;fill:#adff2f;fill-opacity:1;stroke:#adff2f;stroke-width:1.16817;stroke-miterlimit:4;stroke-dasharray:none;paint-order:markers stroke fill;stop-color:#000000"
         id="ellipse1011-0-8"
         cx="61.213703"
         cy="47.740898"
         rx="2.4159193"
         ry="2.4159169" />
    </clipPath>
    <clipPath
       clipPathUnits="userSpaceOnUse"
       id="clipPath1009-8-3-1">
      <ellipse
         ry="2.4159169"
         rx="2.4159193"
         cy="47.740898"
         cx="61.213703"
         id="ellipse1011-0-6-0"
         style="opacity:0.714286;fill:#adff2f;fill-opacity:1;stroke:#adff2f;stroke-width:1.16817;stroke-miterlimit:4;stroke-dasharray:none;paint-order:markers stroke fill;stop-color:#000000" />
    </clipPath>
    <rect
       x="-214.91937"
       y="-131.0656"
       width="32.766396"
       height="102.87944"
       id="rect991-9" />
    <clipPath
       clipPathUnits="userSpaceOnUse"
       id="clipPath1009-1">
      <ellipse
         ry="2.4159169"
         rx="2.4159193"
         cy="47.740898"
         cx="61.213703"
         id="ellipse1011-7"
         style="opacity:0.714286;fill:#adff2f;fill-opacity:1;stroke:#adff2f;stroke-width:1.16817;stroke-miterlimit:4;stroke-dasharray:none;paint-order:markers stroke fill;stop-color:#000000" />
    </clipPath>
    <clipPath
       id="clipPath1009-8-38"
       clipPathUnits="userSpaceOnUse">
      <ellipse
         style="opacity:0.714286;fill:#adff2f;fill-opacity:1;stroke:#adff2f;stroke-width:1.16817;stroke-miterlimit:4;stroke-dasharray:none;paint-order:markers stroke fill;stop-color:#000000"
         id="ellipse1011-0-7"
         cx="61.213703"
         cy="47.740898"
         rx="2.4159193"
         ry="2.4159169" />
    </clipPath>
    <clipPath
       clipPathUnits="userSpaceOnUse"
       id="clipPath1009-8-3-0">
      <ellipse
         ry="2.4159169"
         rx="2.4159193"
         cy="47.740898"
         cx="61.213703"
         id="ellipse1011-0-6-8"
         style="opacity:0.714286;fill:#adff2f;fill-opacity:1;stroke:#adff2f;stroke-width:1.16817;stroke-miterlimit:4;stroke-dasharray:none;paint-order:markers stroke fill;stop-color:#000000" />
    </clipPath>
  </defs>
  <sodipodi:namedview
     id="base"
     pagecolor="#ffffff"
     bordercolor="#666666"
     borderopacity="1.0"
     inkscape:pageopacity="0.0"
     inkscape:pageshadow="2"
     inkscape:zoom="3.666938"
     inkscape:cx="33.059957"
     inkscape:cy="37.045664"
     inkscape:document-units="mm"
     inkscape:current-layer="layer1"
     inkscape:document-rotation="0"
     showgrid="false"
     inkscape:snap-global="true"
     showguides="true"
     inkscape:guide-bbox="true"
     inkscape:window-width="1920"
     inkscape:window-height="986"
     inkscape:window-x="-11"
     inkscape:window-y="-11"
     inkscape:window-maximized="1" />
  <metadata
     id="metadata5">
    <rdf:RDF>
      <cc:Work
         rdf:about="">
        <dc:format>image/svg+xml</dc:format>
        <dc:type
           rdf:resource="http://purl.org/dc/dcmitype/StillImage" />
        <dc:title />
      </cc:Work>
    </rdf:RDF>
  </metadata>
  <g
     inkscape:label="Layer 1"
     inkscape:groupmode="layer"
     id="layer1">
    <path
       inkscape:connector-curvature="0"
       id="path961-2-2"
       d="M 7.811312,17.566088 C 4.414237,17.176612 1.482649,14.776955 0.419058,11.515148 0.001562,10.234781 -0.117405,8.5241149 0.122983,7.2579573 c 0.648925,-3.417984 3.151153,-6.110301 6.482344,-6.974805 1.450485,-0.3764245 2.917254,-0.3775351 4.388201,-0.00332 2.844487,0.7236491 5.155483,2.8528105 6.148727,5.6649247 0.340266,0.9633874 0.459744,1.7062795 0.459744,2.8585507 0,1.9041233 -0.455834,3.3705453 -1.55948,5.0168243 -1.222002,1.822827 -3.351294,3.219045 -5.542284,3.634181 -0.716803,0.135817 -2.010274,0.189586 -2.688923,0.111778 z"
       style="fill:#3d8bff;fill-opacity:1;stroke-width:0.265121;paint-order:markers stroke fill;stop-color:#000000" />
    <path
       style="fill:#8ad3ff;fill-opacity:1;stroke-width:0.27328;paint-order:markers stroke fill;stop-color:#000000"
       d="M 8.068845,15.333876 C 5.3178728,11.087238 3.7505056,7.6481908 3.7558474,5.8704807 3.7577731,5.24618 3.934755,4.5260751 4.2384072,3.9075991 4.6293783,3.1112884 5.5187168,2.2352904 6.3591086,1.81872 6.6973317,1.6510654 7.1670228,1.4653294 7.4028647,1.4059731 c 1.8136247,-0.45645125 3.7055923,0.052347 4.9611103,1.3341661 0.781892,0.7982727 1.168819,1.5931617 1.318154,2.7079689 0.250386,1.8691464 -1.085234,5.0623199 -3.674019,8.7837589 -0.8167889,1.174153 -1.3101747,1.806574 -1.4094162,1.806574 -0.04039,0 -0.2788272,-0.317054 -0.5298488,-0.704565 z M 9.5091232,9.2058345 C 10.379347,8.9794951 11.07068,8.4208463 11.462136,7.6276524 11.780416,6.9827147 11.879699,6.4091807 11.782141,5.7791247 11.394996,3.2790676 8.3370976,2.2726816 6.5521158,4.0578698 5.3709138,5.239212 5.3476544,7.1146506 6.4991083,8.3307188 7.2965985,9.1729626 8.4009979,9.4940499 9.5091232,9.2058345 Z"
       id="path1050"
       inkscape:connector-curvature="0" />
    <text
       style="font-size:10.5833px;line-height:1.25;font-family:sans-serif;word-spacing:0px;white-space:pre;shape-inside:url(#rect991);"
       id="text989"
       xml:space="preserve" />
    <circle
       style="fill:#000000;fill-opacity:1;stroke-width:1.3179;paint-order:markers stroke fill;stop-color:#000000"
       id="path858-7"
       cx="14.413265"
       cy="14.311224"
       r="5.6377549" />
    <circle
       r="5"
       cy="14.311224"
       cx="14.413265"
       id="path858"
       style="fill:#3d8bff;fill-opacity:1;stroke-width:1.16882;paint-order:markers stroke fill;stop-color:#000000" />
    <path
       transform="scale(0.26458333)"
       d="M 50.232422 41.458984 L 50.232422 49.847656 L 41.845703 49.847656 L 41.845703 58.332031 L 50.232422 58.332031 L 50.232422 66.720703 L 58.716797 66.720703 L 58.716797 58.332031 L 67.105469 58.332031 L 67.105469 49.847656 L 58.716797 49.847656 L 58.716797 41.458984 L 50.232422 41.458984 z "
       style="fill:#8ad3ff;fill-opacity:1;stroke-width:3.88331;paint-order:markers stroke fill;stop-color:#000000"
       id="rect860" />
    <text
       transform="translate(-20.561226,-7.1428573)"
       style="font-size:10.5833px;line-height:1.25;font-family:sans-serif;word-spacing:0px;white-space:pre;shape-inside:url(#rect991-1);"
       id="text989-9"
       xml:space="preserve" />
    <text
       transform="matrix(0.88009997,0,0,0.88010002,-24.132653,-5.1530613)"
       style="font-size:10.5833px;line-height:1.25;font-family:sans-serif;word-spacing:0px;white-space:pre;shape-inside:url(#rect991-9);"
       id="text989-96"
       xml:space="preserve" />
  </g>
</svg>
