<?xml version="1.0" encoding="UTF-8" standalone="no"?>
<svg
   xmlns:dc="http://purl.org/dc/elements/1.1/"
   xmlns:cc="http://creativecommons.org/ns#"
   xmlns:rdf="http://www.w3.org/1999/02/22-rdf-syntax-ns#"
   xmlns:svg="http://www.w3.org/2000/svg"
   xmlns="http://www.w3.org/2000/svg"
   xmlns:sodipodi="http://sodipodi.sourceforge.net/DTD/sodipodi-0.dtd"
   xmlns:inkscape="http://www.inkscape.org/namespaces/inkscape"
   sodipodi:docname="iconEdit.svg"
   inkscape:version="1.0beta2 (4377acc, 2020-03-27)"
   id="svg8"
   version="1.1"
   viewBox="0 0 20 20"
   height="20mm"
   width="20mm">
  <defs
     id="defs2">
    <rect
       x="-214.91937"
       y="-131.0656"
       width="32.766396"
       height="102.87944"
       id="rect991" />
    <clipPath
       clipPathUnits="userSpaceOnUse"
       id="clipPath1009">
      <ellipse
         ry="2.4159169"
         rx="2.4159193"
         cy="47.740898"
         cx="61.213703"
         id="ellipse1011"
         style="opacity:0.714286;fill:#adff2f;fill-opacity:1;stroke:#adff2f;stroke-width:1.16817;stroke-miterlimit:4;stroke-dasharray:none;paint-order:markers stroke fill;stop-color:#000000" />
    </clipPath>
    <clipPath
       id="clipPath1009-8"
       clipPathUnits="userSpaceOnUse">
      <ellipse
         style="opacity:0.714286;fill:#adff2f;fill-opacity:1;stroke:#adff2f;stroke-width:1.16817;stroke-miterlimit:4;stroke-dasharray:none;paint-order:markers stroke fill;stop-color:#000000"
         id="ellipse1011-0"
         cx="61.213703"
         cy="47.740898"
         rx="2.4159193"
         ry="2.4159169" />
    </clipPath>
    <clipPath
       clipPathUnits="userSpaceOnUse"
       id="clipPath1009-8-3">
      <ellipse
         ry="2.4159169"
         rx="2.4159193"
         cy="47.740898"
         cx="61.213703"
         id="ellipse1011-0-6"
         style="opacity:0.714286;fill:#adff2f;fill-opacity:1;stroke:#adff2f;stroke-width:1.16817;stroke-miterlimit:4;stroke-dasharray:none;paint-order:markers stroke fill;stop-color:#000000" />
    </clipPath>
  </defs>
  <sodipodi:namedview
     inkscape:window-maximized="1"
     inkscape:window-y="-11"
     inkscape:window-x="-11"
     inkscape:window-height="986"
     inkscape:window-width="1920"
     inkscape:guide-bbox="true"
     showguides="true"
     inkscape:snap-global="false"
     showgrid="false"
     inkscape:document-rotation="0"
     inkscape:current-layer="layer1"
     inkscape:document-units="mm"
     inkscape:cy="37.795275"
     inkscape:cx="37.795278"
     inkscape:zoom="10.371667"
     inkscape:pageshadow="2"
     inkscape:pageopacity="0.0"
     borderopacity="1.0"
     bordercolor="#666666"
     pagecolor="#ffffff"
     id="base" />
  <metadata
     id="metadata5">
    <rdf:RDF>
      <cc:Work
         rdf:about="">
        <dc:format>image/svg+xml</dc:format>
        <dc:type
           rdf:resource="http://purl.org/dc/dcmitype/StillImage" />
        <dc:title />
      </cc:Work>
    </rdf:RDF>
  </metadata>
  <g
     id="layer1"
     inkscape:groupmode="layer"
     inkscape:label="Layer 1">
    <text
       xml:space="preserve"
       id="text989"
       style="font-size:10.5833px;line-height:1.25;font-family:sans-serif;word-spacing:0px;white-space:pre;shape-inside:url(#rect991);" />
    <path
       style="fill:#3d8bff;fill-opacity:1;stroke-width:0.30124;paint-order:markers stroke fill;stop-color:#000000"
       d="M 8.8754839,19.959195 C 5.0156088,19.516658 1.6846371,16.790086 0.47614829,13.083909 0.0017752,11.629111 -0.13339982,9.6853933 0.13973763,8.2467414 0.87706889,4.3631101 3.720187,1.3040068 7.5052017,0.3217275 c 1.6480907,-0.42770643 3.3146853,-0.42896831 4.9860263,-0.003772 3.232004,0.8222351 5.857838,3.2414616 6.986395,6.4366827 0.386623,1.094634 0.522378,1.9387336 0.522378,3.2479838 0,2.16353 -0.517935,3.82973 -1.771935,5.700288 -1.388482,2.07116 -3.807857,3.657591 -6.297336,4.129283 -0.814455,0.154319 -2.2841425,0.215413 -3.0552461,0.127005 z"
       id="path961-2-2"
       inkscape:connector-curvature="0" />
    <path
       inkscape:connector-curvature="0"
       d="m 3.710981,16.443054 c 0.01383,-0.0456 0.254572,-1.005313 0.534974,-2.132685 0.280401,-1.127372 0.51687,-2.058148 0.525486,-2.068393 0.0086,-0.01024 0.06943,0.03276 0.135142,0.09556 0.141427,0.135158 0.469699,0.291463 0.614968,0.292815 0.09394,8.76e-4 0.100471,0.01434 0.07437,0.153445 -0.03644,0.194242 0.04285,0.63527 0.158419,0.881126 0.273339,0.581504 1.076754,1.047343 1.641699,0.951896 l 0.163635,-0.02765 0.05723,0.223319 c 0.03148,0.122827 0.124037,0.310835 0.205684,0.417798 0.100717,0.131946 0.130732,0.200854 0.09335,0.214305 -0.0303,0.0109 -0.96066,0.245699 -2.067456,0.521765 -1.106795,0.276067 -2.046174,0.514917 -2.087508,0.530778 -0.0589,0.0226 -0.06971,0.01091 -0.05,-0.05408 z m 4.830948,-1.61504 C 8.390609,14.722026 8.313792,14.506278 8.363606,14.327182 8.395336,14.213096 9.175763,13.408617 11.79677,10.7882 l 3.392098,-3.3913314 0.323252,0.3254238 0.323252,0.3254239 -0.17121,0.1875129 c -0.09416,0.1031322 -1.633708,1.6447004 -3.421207,3.4257078 -3.220699,3.209002 -3.251572,3.238195 -3.424745,3.238195 -0.09611,0 -0.220437,-0.032 -0.276281,-0.07112 z M 5.627216,11.858779 C 5.464469,11.828189 5.30954,11.602733 5.30954,11.396501 V 11.215077 L 8.732419,7.7913784 12.155298,4.3676796 12.48355,4.6937417 12.811802,5.0198036 9.420471,8.4116134 C 7.555239,10.277109 5.989888,11.814625 5.941915,11.828316 c -0.150445,0.04294 -0.215073,0.04919 -0.314699,0.03046 z m 8.934535,-6.2207497 -1.842177,-1.8425592 0.44903,-0.4356593 c 0.262151,-0.2543439 0.533346,-0.4749749 0.651619,-0.5301257 0.32291,-0.1505713 0.713763,-0.2062942 1.041754,-0.1485199 0.503844,0.08875 0.694066,0.2175989 1.516171,1.0269859 0.414897,0.4084788 0.813155,0.8314574 0.88502,0.9399527 0.202732,0.3060702 0.317986,0.7397614 0.288875,1.0870088 -0.04754,0.5670598 -0.284828,0.9580068 -0.949421,1.5642326 L 16.403928,7.4805885 Z M 6.861914,13.709986 C 6.768244,13.656406 6.63087,13.53716 6.55663,13.444984 6.43178,13.289971 6.421648,13.252041 6.421648,12.939716 c 0,-0.302014 0.01343,-0.357057 0.127192,-0.521213 0.111899,-0.161469 6.742449,-6.7697338 6.820902,-6.7979759 0.01687,-0.00607 0.310879,0.2696559 0.653345,0.6127337 l 0.622665,0.6237779 -3.429035,3.3995743 c -1.885969,1.869766 -3.490768,3.43392 -3.566221,3.475896 -0.199316,0.110887 -0.574054,0.100184 -0.788582,-0.02252 z"
       style="fill:#000000;fill-opacity:1;stroke-width:0.164833;paint-order:markers stroke fill;stop-color:#000000"
       id="path866-0" />
    <path
       id="path866"
       style="fill:#8ad3ff;fill-opacity:1;stroke-width:0.164833;paint-order:markers stroke fill;stop-color:#000000"
       d="m 3.297067,16.264327 c 0.01383,-0.04561 0.254572,-1.005313 0.534974,-2.132684 0.280402,-1.127372 0.51687,-2.058149 0.525486,-2.068393 0.0086,-0.01025 0.06943,0.03275 0.135143,0.09556 0.141427,0.135158 0.469698,0.291464 0.614967,0.292815 0.09394,8.76e-4 0.100471,0.01434 0.07437,0.153445 -0.03644,0.194242 0.04285,0.63527 0.158419,0.881127 0.273339,0.581503 1.076754,1.047342 1.641699,0.951896 l 0.163635,-0.02765 0.05723,0.223319 c 0.03148,0.122826 0.124037,0.310834 0.205684,0.417798 0.100717,0.131946 0.130732,0.200853 0.09335,0.214305 -0.03031,0.0109 -0.960661,0.245698 -2.067457,0.521764 -1.106795,0.276067 -2.046174,0.514917 -2.087507,0.530778 -0.0589,0.0226 -0.06971,0.01091 -0.05,-0.05408 z m 4.830948,-1.61504 C 7.976695,14.543299 7.899878,14.327552 7.949692,14.148455 7.981422,14.03437 8.761849,13.229891 11.382856,10.609474 l 3.392098,-3.3913322 0.323252,0.3254238 0.323252,0.3254239 -0.171209,0.187513 c -0.09416,0.1031321 -1.633709,1.6447003 -3.421207,3.4257075 -3.220699,3.209003 -3.251573,3.238195 -3.424745,3.238195 -0.09611,0 -0.220438,-0.032 -0.276282,-0.07112 z M 5.213302,11.680052 C 5.050555,11.649462 4.895626,11.424006 4.895626,11.217774 V 11.036351 L 8.318505,7.6126516 11.741384,4.1889528 12.069636,4.515015 12.397889,4.8410768 9.006557,8.2328866 C 7.141325,10.098382 5.575975,11.635899 5.528001,11.649589 c -0.150445,0.04294 -0.215073,0.04919 -0.314699,0.03046 z M 14.147837,5.4593026 12.305661,3.6167433 12.754691,3.181084 c 0.26215,-0.2543438 0.533345,-0.4749749 0.651618,-0.5301257 0.32291,-0.1505713 0.713763,-0.2062942 1.041754,-0.1485198 0.503844,0.08875 0.694067,0.2175989 1.516171,1.0269858 0.414897,0.4084789 0.813155,0.8314575 0.88502,0.9399527 0.202732,0.3060703 0.317986,0.7397615 0.288875,1.0870089 -0.04754,0.5670598 -0.284828,0.9580068 -0.949421,1.5642326 L 15.990014,7.3018617 Z M 6.448,13.53126 C 6.35433,13.47768 6.216956,13.358433 6.142716,13.266257 6.017867,13.111245 6.007734,13.073314 6.007734,12.760989 c 0,-0.302014 0.01343,-0.357057 0.127192,-0.521212 0.111899,-0.16147 6.742449,-6.7697346 6.820903,-6.7979767 0.01687,-0.00607 0.310878,0.269656 0.653344,0.6127338 l 0.622665,0.6237779 -3.429035,3.399575 C 8.916835,11.947653 7.312035,13.511806 7.236582,13.553783 7.037266,13.664669 6.662528,13.653966 6.448,13.531263 Z"
       inkscape:connector-curvature="0" />
  </g>
</svg>
