<?xml version="1.0" encoding="UTF-8" standalone="no"?>
<svg
   xmlns:dc="http://purl.org/dc/elements/1.1/"
   xmlns:cc="http://creativecommons.org/ns#"
   xmlns:rdf="http://www.w3.org/1999/02/22-rdf-syntax-ns#"
   xmlns:svg="http://www.w3.org/2000/svg"
   xmlns="http://www.w3.org/2000/svg"
   xmlns:sodipodi="http://sodipodi.sourceforge.net/DTD/sodipodi-0.dtd"
   xmlns:inkscape="http://www.inkscape.org/namespaces/inkscape"
   sodipodi:docname="iconLoc.svg"
   inkscape:version="1.0beta2 (4377acc, 2020-03-27)"
   id="svg8"
   version="1.1"
   viewBox="0 0 20 20"
   height="20mm"
   width="20mm">
  <defs
     id="defs2">
    <rect
       x="-214.91937"
       y="-131.0656"
       width="32.766396"
       height="102.87944"
       id="rect991" />
    <clipPath
       clipPathUnits="userSpaceOnUse"
       id="clipPath1009">
      <ellipse
         ry="2.4159169"
         rx="2.4159193"
         cy="47.740898"
         cx="61.213703"
         id="ellipse1011"
         style="opacity:0.714286;fill:#adff2f;fill-opacity:1;stroke:#adff2f;stroke-width:1.16817;stroke-miterlimit:4;stroke-dasharray:none;paint-order:markers stroke fill;stop-color:#000000" />
    </clipPath>
    <clipPath
       id="clipPath1009-8"
       clipPathUnits="userSpaceOnUse">
      <ellipse
         style="opacity:0.714286;fill:#adff2f;fill-opacity:1;stroke:#adff2f;stroke-width:1.16817;stroke-miterlimit:4;stroke-dasharray:none;paint-order:markers stroke fill;stop-color:#000000"
         id="ellipse1011-0"
         cx="61.213703"
         cy="47.740898"
         rx="2.4159193"
         ry="2.4159169" />
    </clipPath>
    <clipPath
       clipPathUnits="userSpaceOnUse"
       id="clipPath1009-8-3">
      <ellipse
         ry="2.4159169"
         rx="2.4159193"
         cy="47.740898"
         cx="61.213703"
         id="ellipse1011-0-6"
         style="opacity:0.714286;fill:#adff2f;fill-opacity:1;stroke:#adff2f;stroke-width:1.16817;stroke-miterlimit:4;stroke-dasharray:none;paint-order:markers stroke fill;stop-color:#000000" />
    </clipPath>
  </defs>
  <sodipodi:namedview
     inkscape:window-maximized="1"
     inkscape:window-y="-11"
     inkscape:window-x="-11"
     inkscape:window-height="986"
     inkscape:window-width="1920"
     inkscape:guide-bbox="true"
     showguides="true"
     inkscape:snap-global="false"
     showgrid="false"
     inkscape:document-rotation="0"
     inkscape:current-layer="layer1"
     inkscape:document-units="mm"
     inkscape:cy="67.546186"
     inkscape:cx="72.905382"
     inkscape:zoom="2.5929167"
     inkscape:pageshadow="2"
     inkscape:pageopacity="0.0"
     borderopacity="1.0"
     bordercolor="#666666"
     pagecolor="#ffffff"
     id="base" />
  <metadata
     id="metadata5">
    <rdf:RDF>
      <cc:Work
         rdf:about="">
        <dc:format>image/svg+xml</dc:format>
        <dc:type
           rdf:resource="http://purl.org/dc/dcmitype/StillImage" />
        <dc:title />
      </cc:Work>
    </rdf:RDF>
  </metadata>
  <g
     id="layer1"
     inkscape:groupmode="layer"
     inkscape:label="Layer 1">
    <text
       xml:space="preserve"
       id="text989"
       style="font-size:10.5833px;line-height:1.25;font-family:sans-serif;word-spacing:0px;white-space:pre;shape-inside:url(#rect991);" />
    <path
       style="fill:#3d8bff;fill-opacity:1;stroke-width:0.30124;paint-order:markers stroke fill;stop-color:#000000"
       d="M 8.8754839,19.959195 C 5.0156088,19.516658 1.6846371,16.790086 0.47614829,13.083909 0.0017752,11.629111 -0.13339982,9.6853933 0.13973763,8.2467414 0.87706889,4.3631101 3.720187,1.3040068 7.5052017,0.3217275 c 1.6480907,-0.42770643 3.3146853,-0.42896831 4.9860263,-0.003772 3.232004,0.8222351 5.857838,3.2414616 6.986395,6.4366827 0.386623,1.094634 0.522378,1.9387336 0.522378,3.2479838 0,2.16353 -0.517935,3.82973 -1.771935,5.700288 -1.388482,2.07116 -3.807857,3.657591 -6.297336,4.129283 -0.814455,0.154319 -2.2841425,0.215413 -3.0552461,0.127005 z"
       id="path961-2-2"
       inkscape:connector-curvature="0" />
    <path
       style="fill:#000000;fill-opacity:1;stroke-width:0.31051;paint-order:markers stroke fill;stop-color:#000000"
       d="M 9.6370329,17.714184 C 6.511283,12.889008 4.7303862,8.9814442 4.7364557,6.9615487 4.7386437,6.2521967 4.9397367,5.4339887 5.2847569,4.731255 5.7289917,3.8264593 6.739489,2.8311202 7.6943713,2.3577986 8.0786721,2.1673036 8.6123513,1.956264 8.880323,1.8888213 c 2.060703,-0.5186356 4.210423,0.059478 5.636986,1.5159256 0.888412,0.9070249 1.328052,1.8102052 1.497732,3.0768876 0.284496,2.1237885 -1.233081,5.7519825 -4.174548,9.9804095 -0.928064,1.334113 -1.488666,2.052692 -1.601427,2.052692 -0.04589,0 -0.3168137,-0.360248 -0.6020331,-0.800552 z m 1.6364941,-6.962891 c 0.988778,-0.257175 1.774294,-0.8919309 2.219081,-1.7931852 0.36164,-0.7328005 0.474449,-1.3844695 0.3636,-2.1003609 C 13.416321,4.0170959 9.9418308,2.8736054 7.9136727,4.9019978 6.57155,6.2442795 6.545122,8.3752175 7.8534438,9.7569561 8.7595797,10.713943 10.014437,11.078773 11.273527,10.751293 Z"
       id="path1050-6"
       inkscape:connector-curvature="0" />
    <path
       inkscape:connector-curvature="0"
       id="path1050"
       d="M 9.1681015,17.422878 C 6.0423516,12.597701 4.2614547,8.6901378 4.2675242,6.6702423 c 0.00219,-0.709352 0.203281,-1.52756 0.5483013,-2.2302937 0.4442348,-0.9047957 1.454732,-1.9001348 2.4096143,-2.3734564 0.3843008,-0.190495 0.91798,-0.4015346 1.1859518,-0.4689773 2.0607034,-0.5186356 4.2104224,0.059478 5.6369854,1.5159255 0.888413,0.9070249 1.328053,1.8102052 1.497733,3.0768877 0.284496,2.1237885 -1.233081,5.7519819 -4.174548,9.9804099 -0.928064,1.334112 -1.4886664,2.052691 -1.6014279,2.052691 -0.045892,0 -0.3168132,-0.360248 -0.6020326,-0.800551 z M 10.804595,10.459986 C 11.793374,10.202812 12.57889,9.5680556 13.023677,8.6668014 13.385317,7.9340009 13.498126,7.2823319 13.387276,6.5664405 12.947389,3.7257894 9.4728993,2.582299 7.4447413,4.6106914 6.1026186,5.9529731 6.0761905,8.0839111 7.3845123,9.4656497 8.2906483,10.422636 9.5455051,10.787467 10.804595,10.459986 Z"
       style="fill:#8ad3ff;fill-opacity:1;stroke-width:0.31051;paint-order:markers stroke fill;stop-color:#000000" />
  </g>
</svg>
